<mxfile host="app.diagrams.net" agent="Mozilla/5.0 (Macintosh; Intel Mac OS X 10_15_7) AppleWebKit/537.36 (KHTML, like Gecko) Chrome/137.0.0.0 Safari/537.36" version="28.0.0">
  <diagram name="Page-1" id="wkuIgCJe66t2j2mm5l4u">
    <mxGraphModel dx="2819" dy="1016" grid="1" gridSize="10" guides="1" tooltips="1" connect="1" arrows="1" fold="1" page="1" pageScale="1" pageWidth="827" pageHeight="1169" math="0" shadow="0">
      <root>
        <mxCell id="0" />
        <mxCell id="1" parent="0" />
        <mxCell id="cCStzNTXAHTxMMz0qUy2-59" value="" style="rounded=0;whiteSpace=wrap;html=1;" parent="1" vertex="1">
          <mxGeometry x="-50" y="200" width="120" height="60" as="geometry" />
        </mxCell>
        <mxCell id="cCStzNTXAHTxMMz0qUy2-57" value="" style="rounded=0;whiteSpace=wrap;html=1;" parent="1" vertex="1">
          <mxGeometry x="-50" y="710" width="120" height="60" as="geometry" />
        </mxCell>
        <mxCell id="cCStzNTXAHTxMMz0qUy2-16" style="edgeStyle=orthogonalEdgeStyle;rounded=0;orthogonalLoop=1;jettySize=auto;html=1;entryX=0;entryY=0.5;entryDx=0;entryDy=0;" parent="1" source="cCStzNTXAHTxMMz0qUy2-2" target="cCStzNTXAHTxMMz0qUy2-4" edge="1">
          <mxGeometry relative="1" as="geometry" />
        </mxCell>
        <mxCell id="cCStzNTXAHTxMMz0qUy2-17" style="edgeStyle=orthogonalEdgeStyle;rounded=0;orthogonalLoop=1;jettySize=auto;html=1;entryX=0;entryY=0.5;entryDx=0;entryDy=0;" parent="1" source="cCStzNTXAHTxMMz0qUy2-4" target="cCStzNTXAHTxMMz0qUy2-6" edge="1">
          <mxGeometry relative="1" as="geometry" />
        </mxCell>
        <mxCell id="cCStzNTXAHTxMMz0qUy2-4" value="PROJECT CI&lt;div&gt;&lt;span style=&quot;font-size: 10px;&quot;&gt;(M ODS)&lt;/span&gt;&lt;/div&gt;" style="rounded=0;whiteSpace=wrap;html=1;" parent="1" vertex="1">
          <mxGeometry x="140" y="580" width="120" height="60" as="geometry" />
        </mxCell>
        <mxCell id="cCStzNTXAHTxMMz0qUy2-18" style="edgeStyle=orthogonalEdgeStyle;rounded=0;orthogonalLoop=1;jettySize=auto;html=1;entryX=0;entryY=0.5;entryDx=0;entryDy=0;" parent="1" source="cCStzNTXAHTxMMz0qUy2-6" target="cCStzNTXAHTxMMz0qUy2-8" edge="1">
          <mxGeometry relative="1" as="geometry" />
        </mxCell>
        <mxCell id="cCStzNTXAHTxMMz0qUy2-6" value="PROJECT QA&lt;div&gt;&lt;span style=&quot;font-size: 10px;&quot;&gt;(M ODS)&lt;/span&gt;&lt;/div&gt;" style="rounded=0;whiteSpace=wrap;html=1;" parent="1" vertex="1">
          <mxGeometry x="320" y="580" width="120" height="60" as="geometry" />
        </mxCell>
        <mxCell id="cCStzNTXAHTxMMz0qUy2-19" style="edgeStyle=orthogonalEdgeStyle;rounded=0;orthogonalLoop=1;jettySize=auto;html=1;entryX=0;entryY=0.5;entryDx=0;entryDy=0;" parent="1" source="cCStzNTXAHTxMMz0qUy2-8" target="cCStzNTXAHTxMMz0qUy2-45" edge="1">
          <mxGeometry relative="1" as="geometry" />
        </mxCell>
        <mxCell id="cCStzNTXAHTxMMz0qUy2-8" value="PROJECT UAT&lt;div&gt;&lt;span style=&quot;font-size: 10px;&quot;&gt;(L ODS)&lt;/span&gt;&lt;/div&gt;" style="rounded=0;whiteSpace=wrap;html=1;" parent="1" vertex="1">
          <mxGeometry x="500" y="580" width="120" height="60" as="geometry" />
        </mxCell>
        <mxCell id="cCStzNTXAHTxMMz0qUy2-29" style="edgeStyle=orthogonalEdgeStyle;rounded=0;orthogonalLoop=1;jettySize=auto;html=1;entryX=0;entryY=0.5;entryDx=0;entryDy=0;" parent="1" source="cCStzNTXAHTxMMz0qUy2-9" target="cCStzNTXAHTxMMz0qUy2-12" edge="1">
          <mxGeometry relative="1" as="geometry" />
        </mxCell>
        <mxCell id="ZtkrMSjn0WLHxIeyAdHW-1" value="data sync" style="edgeStyle=orthogonalEdgeStyle;rounded=0;orthogonalLoop=1;jettySize=auto;html=1;dashed=1;fillColor=#d5e8d4;strokeColor=#82b366;" parent="1" source="cCStzNTXAHTxMMz0qUy2-9" target="cCStzNTXAHTxMMz0qUy2-10" edge="1">
          <mxGeometry relative="1" as="geometry" />
        </mxCell>
        <mxCell id="cCStzNTXAHTxMMz0qUy2-9" value="STAGING &lt;font style=&quot;font-size: 11px;&quot;&gt;PRE-PROD&lt;/font&gt;&lt;div&gt;(Partial Copy)&lt;/div&gt;" style="rounded=0;whiteSpace=wrap;html=1;fillColor=#dae8fc;strokeColor=#6c8ebf;" parent="1" vertex="1">
          <mxGeometry x="860" y="290" width="120" height="60" as="geometry" />
        </mxCell>
        <mxCell id="cCStzNTXAHTxMMz0qUy2-20" style="edgeStyle=orthogonalEdgeStyle;rounded=0;orthogonalLoop=1;jettySize=auto;html=1;exitX=1;exitY=0.5;exitDx=0;exitDy=0;entryX=0;entryY=0.5;entryDx=0;entryDy=0;" parent="1" source="cCStzNTXAHTxMMz0qUy2-10" target="cCStzNTXAHTxMMz0qUy2-13" edge="1">
          <mxGeometry relative="1" as="geometry" />
        </mxCell>
        <mxCell id="cCStzNTXAHTxMMz0qUy2-21" style="edgeStyle=orthogonalEdgeStyle;rounded=0;orthogonalLoop=1;jettySize=auto;html=1;entryX=0.5;entryY=0;entryDx=0;entryDy=0;" parent="1" source="cCStzNTXAHTxMMz0qUy2-10" target="cCStzNTXAHTxMMz0qUy2-14" edge="1">
          <mxGeometry relative="1" as="geometry" />
        </mxCell>
        <mxCell id="ZtkrMSjn0WLHxIeyAdHW-2" value="data sync" style="edgeStyle=orthogonalEdgeStyle;rounded=0;orthogonalLoop=1;jettySize=auto;html=1;entryX=0.5;entryY=0;entryDx=0;entryDy=0;exitX=0.75;exitY=0;exitDx=0;exitDy=0;dashed=1;fillColor=#d5e8d4;strokeColor=#82b366;" parent="1" source="cCStzNTXAHTxMMz0qUy2-10" target="cCStzNTXAHTxMMz0qUy2-13" edge="1">
          <mxGeometry relative="1" as="geometry">
            <Array as="points">
              <mxPoint x="950" y="600" />
              <mxPoint x="1100" y="600" />
            </Array>
          </mxGeometry>
        </mxCell>
        <mxCell id="cCStzNTXAHTxMMz0qUy2-10" value="STAGING" style="rounded=0;whiteSpace=wrap;html=1;fillColor=#dae8fc;strokeColor=#6c8ebf;" parent="1" vertex="1">
          <mxGeometry x="860" y="640" width="120" height="60" as="geometry" />
        </mxCell>
        <mxCell id="OafFXzOzD-JtSpszp6co-1" style="edgeStyle=orthogonalEdgeStyle;rounded=0;orthogonalLoop=1;jettySize=auto;html=1;entryX=1;entryY=0.5;entryDx=0;entryDy=0;" edge="1" parent="1" source="cCStzNTXAHTxMMz0qUy2-12" target="cCStzNTXAHTxMMz0qUy2-23">
          <mxGeometry relative="1" as="geometry" />
        </mxCell>
        <mxCell id="cCStzNTXAHTxMMz0qUy2-12" value="PRODUCTION" style="rounded=0;whiteSpace=wrap;html=1;fillColor=#f8cecc;strokeColor=#b85450;" parent="1" vertex="1">
          <mxGeometry x="1040" y="290" width="120" height="60" as="geometry" />
        </mxCell>
        <mxCell id="cCStzNTXAHTxMMz0qUy2-13" value="PRODUCTION" style="rounded=0;whiteSpace=wrap;html=1;fillColor=#f8cecc;strokeColor=#b85450;" parent="1" vertex="1">
          <mxGeometry x="1040" y="640" width="120" height="60" as="geometry" />
        </mxCell>
        <mxCell id="cCStzNTXAHTxMMz0qUy2-14" value="DEVELOPEMNT" style="rounded=0;whiteSpace=wrap;html=1;fillColor=#d5e8d4;strokeColor=#82b366;" parent="1" vertex="1">
          <mxGeometry x="860" y="760" width="120" height="60" as="geometry" />
        </mxCell>
        <mxCell id="cCStzNTXAHTxMMz0qUy2-58" style="edgeStyle=orthogonalEdgeStyle;rounded=0;orthogonalLoop=1;jettySize=auto;html=1;" parent="1" source="cCStzNTXAHTxMMz0qUy2-15" target="cCStzNTXAHTxMMz0qUy2-9" edge="1">
          <mxGeometry relative="1" as="geometry" />
        </mxCell>
        <mxCell id="cCStzNTXAHTxMMz0qUy2-15" value="HOTFIX&lt;br&gt;&lt;font style=&quot;font-size: 10px;&quot;&gt;(Dev)&lt;/font&gt;" style="rounded=0;whiteSpace=wrap;html=1;fillColor=#fff2cc;strokeColor=#d6b656;" parent="1" vertex="1">
          <mxGeometry x="860" y="170" width="120" height="60" as="geometry" />
        </mxCell>
        <mxCell id="cCStzNTXAHTxMMz0qUy2-30" style="edgeStyle=orthogonalEdgeStyle;rounded=0;orthogonalLoop=1;jettySize=auto;html=1;entryX=0;entryY=0.5;entryDx=0;entryDy=0;" parent="1" source="cCStzNTXAHTxMMz0qUy2-31" target="cCStzNTXAHTxMMz0qUy2-33" edge="1">
          <mxGeometry relative="1" as="geometry" />
        </mxCell>
        <mxCell id="cCStzNTXAHTxMMz0qUy2-31" value="DEV 1&lt;div&gt;&lt;span style=&quot;font-size: 10px;&quot;&gt;(Dev)&lt;/span&gt;&lt;/div&gt;" style="rounded=0;whiteSpace=wrap;html=1;" parent="1" vertex="1">
          <mxGeometry x="-40" y="190" width="120" height="60" as="geometry" />
        </mxCell>
        <mxCell id="cCStzNTXAHTxMMz0qUy2-32" style="edgeStyle=orthogonalEdgeStyle;rounded=0;orthogonalLoop=1;jettySize=auto;html=1;entryX=0;entryY=0.5;entryDx=0;entryDy=0;" parent="1" source="cCStzNTXAHTxMMz0qUy2-33" target="cCStzNTXAHTxMMz0qUy2-35" edge="1">
          <mxGeometry relative="1" as="geometry" />
        </mxCell>
        <mxCell id="cCStzNTXAHTxMMz0qUy2-33" value="PROJECT CI&lt;div&gt;&lt;span style=&quot;font-size: 10px;&quot;&gt;(Dev)&lt;/span&gt;&lt;/div&gt;" style="rounded=0;whiteSpace=wrap;html=1;" parent="1" vertex="1">
          <mxGeometry x="140" y="190" width="120" height="60" as="geometry" />
        </mxCell>
        <mxCell id="OafFXzOzD-JtSpszp6co-5" style="edgeStyle=orthogonalEdgeStyle;rounded=0;orthogonalLoop=1;jettySize=auto;html=1;entryX=1;entryY=0.5;entryDx=0;entryDy=0;" edge="1" parent="1" source="cCStzNTXAHTxMMz0qUy2-35" target="OafFXzOzD-JtSpszp6co-4">
          <mxGeometry relative="1" as="geometry">
            <Array as="points">
              <mxPoint x="380" y="130" />
            </Array>
          </mxGeometry>
        </mxCell>
        <mxCell id="cCStzNTXAHTxMMz0qUy2-35" value="PROJECT QA&lt;div&gt;&lt;font style=&quot;font-size: 10px;&quot;&gt;(Dev)&lt;/font&gt;&lt;/div&gt;" style="rounded=0;whiteSpace=wrap;html=1;" parent="1" vertex="1">
          <mxGeometry x="320" y="190" width="120" height="60" as="geometry" />
        </mxCell>
        <mxCell id="cCStzNTXAHTxMMz0qUy2-37" style="edgeStyle=orthogonalEdgeStyle;rounded=0;orthogonalLoop=1;jettySize=auto;html=1;entryX=0;entryY=0.5;entryDx=0;entryDy=0;exitX=1;exitY=0.5;exitDx=0;exitDy=0;" parent="1" source="cCStzNTXAHTxMMz0qUy2-35" target="OafFXzOzD-JtSpszp6co-2" edge="1">
          <mxGeometry relative="1" as="geometry">
            <mxPoint x="620" y="200" as="sourcePoint" />
            <Array as="points">
              <mxPoint x="650" y="220" />
              <mxPoint x="650" y="320" />
            </Array>
          </mxGeometry>
        </mxCell>
        <mxCell id="cCStzNTXAHTxMMz0qUy2-38" style="edgeStyle=orthogonalEdgeStyle;rounded=0;orthogonalLoop=1;jettySize=auto;html=1;entryX=0;entryY=0.5;entryDx=0;entryDy=0;" parent="1" source="cCStzNTXAHTxMMz0qUy2-39" target="cCStzNTXAHTxMMz0qUy2-41" edge="1">
          <mxGeometry relative="1" as="geometry" />
        </mxCell>
        <mxCell id="cCStzNTXAHTxMMz0qUy2-39" value="DEV 2&lt;div&gt;&lt;span style=&quot;font-size: 10px;&quot;&gt;(M ODS)&lt;/span&gt;&lt;/div&gt;" style="rounded=0;whiteSpace=wrap;html=1;" parent="1" vertex="1">
          <mxGeometry x="-40" y="700" width="120" height="60" as="geometry" />
        </mxCell>
        <mxCell id="cCStzNTXAHTxMMz0qUy2-40" style="edgeStyle=orthogonalEdgeStyle;rounded=0;orthogonalLoop=1;jettySize=auto;html=1;entryX=0;entryY=0.5;entryDx=0;entryDy=0;" parent="1" source="cCStzNTXAHTxMMz0qUy2-41" target="cCStzNTXAHTxMMz0qUy2-43" edge="1">
          <mxGeometry relative="1" as="geometry" />
        </mxCell>
        <mxCell id="cCStzNTXAHTxMMz0qUy2-41" value="SPRINT CI&lt;div&gt;&lt;span style=&quot;font-size: 10px;&quot;&gt;(M ODS)&lt;/span&gt;&lt;/div&gt;" style="rounded=0;whiteSpace=wrap;html=1;" parent="1" vertex="1">
          <mxGeometry x="140" y="700" width="120" height="60" as="geometry" />
        </mxCell>
        <mxCell id="cCStzNTXAHTxMMz0qUy2-42" style="edgeStyle=orthogonalEdgeStyle;rounded=0;orthogonalLoop=1;jettySize=auto;html=1;entryX=0;entryY=0.5;entryDx=0;entryDy=0;" parent="1" source="cCStzNTXAHTxMMz0qUy2-43" target="cCStzNTXAHTxMMz0qUy2-44" edge="1">
          <mxGeometry relative="1" as="geometry" />
        </mxCell>
        <mxCell id="cCStzNTXAHTxMMz0qUy2-43" value="SPRINT QA&lt;div&gt;&lt;span style=&quot;font-size: 10px;&quot;&gt;(M ODS)&lt;/span&gt;&lt;/div&gt;" style="rounded=0;whiteSpace=wrap;html=1;" parent="1" vertex="1">
          <mxGeometry x="320" y="700" width="120" height="60" as="geometry" />
        </mxCell>
        <mxCell id="cCStzNTXAHTxMMz0qUy2-47" style="edgeStyle=orthogonalEdgeStyle;rounded=0;orthogonalLoop=1;jettySize=auto;html=1;entryX=0;entryY=0.5;entryDx=0;entryDy=0;" parent="1" source="cCStzNTXAHTxMMz0qUy2-45" target="cCStzNTXAHTxMMz0qUy2-10" edge="1">
          <mxGeometry relative="1" as="geometry" />
        </mxCell>
        <mxCell id="cCStzNTXAHTxMMz0qUy2-45" value="GLOBAL CI&lt;div&gt;&lt;span style=&quot;font-size: 10px;&quot;&gt;(M ODS)&lt;/span&gt;&lt;/div&gt;" style="rounded=0;whiteSpace=wrap;html=1;" parent="1" vertex="1">
          <mxGeometry x="680" y="640" width="120" height="60" as="geometry" />
        </mxCell>
        <mxCell id="cCStzNTXAHTxMMz0qUy2-46" style="edgeStyle=orthogonalEdgeStyle;rounded=0;orthogonalLoop=1;jettySize=auto;html=1;entryX=0;entryY=0.5;entryDx=0;entryDy=0;exitX=1;exitY=0.5;exitDx=0;exitDy=0;" parent="1" source="cCStzNTXAHTxMMz0qUy2-44" target="cCStzNTXAHTxMMz0qUy2-45" edge="1">
          <mxGeometry relative="1" as="geometry">
            <mxPoint x="640" y="620" as="sourcePoint" />
            <mxPoint x="690" y="680" as="targetPoint" />
          </mxGeometry>
        </mxCell>
        <mxCell id="cCStzNTXAHTxMMz0qUy2-49" style="edgeStyle=orthogonalEdgeStyle;rounded=0;orthogonalLoop=1;jettySize=auto;html=1;entryX=0;entryY=0.5;entryDx=0;entryDy=0;" parent="1" source="cCStzNTXAHTxMMz0qUy2-48" target="cCStzNTXAHTxMMz0qUy2-10" edge="1">
          <mxGeometry relative="1" as="geometry" />
        </mxCell>
        <mxCell id="cCStzNTXAHTxMMz0qUy2-48" value="HOTFIX&lt;div&gt;&lt;font style=&quot;font-size: 10px;&quot;&gt;(M ODS)&lt;/font&gt;&lt;/div&gt;" style="rounded=0;whiteSpace=wrap;html=1;fillColor=#fff2cc;strokeColor=#d6b656;" parent="1" vertex="1">
          <mxGeometry x="680" y="860" width="120" height="60" as="geometry" />
        </mxCell>
        <mxCell id="cCStzNTXAHTxMMz0qUy2-50" value="Salesforce Core" style="swimlane;horizontal=0;whiteSpace=wrap;html=1;" parent="1" vertex="1">
          <mxGeometry x="-190" y="90" width="1460" height="440" as="geometry" />
        </mxCell>
        <mxCell id="cCStzNTXAHTxMMz0qUy2-24" style="edgeStyle=orthogonalEdgeStyle;rounded=0;orthogonalLoop=1;jettySize=auto;html=1;entryX=0;entryY=0.5;entryDx=0;entryDy=0;" parent="cCStzNTXAHTxMMz0qUy2-50" source="cCStzNTXAHTxMMz0qUy2-1" target="cCStzNTXAHTxMMz0qUy2-3" edge="1">
          <mxGeometry relative="1" as="geometry" />
        </mxCell>
        <mxCell id="cCStzNTXAHTxMMz0qUy2-25" style="edgeStyle=orthogonalEdgeStyle;rounded=0;orthogonalLoop=1;jettySize=auto;html=1;entryX=0;entryY=0.5;entryDx=0;entryDy=0;" parent="cCStzNTXAHTxMMz0qUy2-50" source="cCStzNTXAHTxMMz0qUy2-3" target="cCStzNTXAHTxMMz0qUy2-5" edge="1">
          <mxGeometry relative="1" as="geometry" />
        </mxCell>
        <mxCell id="cCStzNTXAHTxMMz0qUy2-3" value="SPRINT CI&lt;div&gt;&lt;span style=&quot;font-size: 10px;&quot;&gt;(Dev)&lt;/span&gt;&lt;/div&gt;" style="rounded=0;whiteSpace=wrap;html=1;" parent="cCStzNTXAHTxMMz0qUy2-50" vertex="1">
          <mxGeometry x="330" y="200" width="120" height="60" as="geometry" />
        </mxCell>
        <mxCell id="cCStzNTXAHTxMMz0qUy2-26" style="edgeStyle=orthogonalEdgeStyle;rounded=0;orthogonalLoop=1;jettySize=auto;html=1;entryX=0;entryY=0.5;entryDx=0;entryDy=0;" parent="cCStzNTXAHTxMMz0qUy2-50" source="cCStzNTXAHTxMMz0qUy2-5" target="cCStzNTXAHTxMMz0qUy2-7" edge="1">
          <mxGeometry relative="1" as="geometry">
            <mxPoint x="690" y="290" as="targetPoint" />
          </mxGeometry>
        </mxCell>
        <mxCell id="cCStzNTXAHTxMMz0qUy2-5" value="SPRINT QA&lt;div&gt;&lt;span style=&quot;font-size: 10px;&quot;&gt;(Dev)&lt;/span&gt;&lt;/div&gt;" style="rounded=0;whiteSpace=wrap;html=1;" parent="cCStzNTXAHTxMMz0qUy2-50" vertex="1">
          <mxGeometry x="510" y="200" width="120" height="60" as="geometry" />
        </mxCell>
        <mxCell id="cCStzNTXAHTxMMz0qUy2-60" value="" style="rounded=0;whiteSpace=wrap;html=1;" parent="cCStzNTXAHTxMMz0qUy2-50" vertex="1">
          <mxGeometry x="140" y="210" width="120" height="60" as="geometry" />
        </mxCell>
        <mxCell id="cCStzNTXAHTxMMz0qUy2-1" value="DEV 2&lt;div&gt;&lt;span style=&quot;font-size: 10px;&quot;&gt;(Dev)&lt;/span&gt;&lt;/div&gt;" style="rounded=0;whiteSpace=wrap;html=1;" parent="cCStzNTXAHTxMMz0qUy2-50" vertex="1">
          <mxGeometry x="150" y="200" width="120" height="60" as="geometry" />
        </mxCell>
        <mxCell id="cCStzNTXAHTxMMz0qUy2-7" value="SPRINT UAT&lt;div&gt;&lt;font style=&quot;font-size: 10px;&quot;&gt;(Dev Pro)&lt;/font&gt;&lt;/div&gt;" style="rounded=0;whiteSpace=wrap;html=1;" parent="cCStzNTXAHTxMMz0qUy2-50" vertex="1">
          <mxGeometry x="700" y="240" width="120" height="60" as="geometry" />
        </mxCell>
        <mxCell id="cCStzNTXAHTxMMz0qUy2-61" style="edgeStyle=orthogonalEdgeStyle;rounded=0;orthogonalLoop=1;jettySize=auto;html=1;entryX=0;entryY=0.5;entryDx=0;entryDy=0;" parent="cCStzNTXAHTxMMz0qUy2-50" source="cCStzNTXAHTxMMz0qUy2-67" target="cCStzNTXAHTxMMz0qUy2-63" edge="1">
          <mxGeometry relative="1" as="geometry" />
        </mxCell>
        <mxCell id="cCStzNTXAHTxMMz0qUy2-62" style="edgeStyle=orthogonalEdgeStyle;rounded=0;orthogonalLoop=1;jettySize=auto;html=1;entryX=0;entryY=0.5;entryDx=0;entryDy=0;" parent="cCStzNTXAHTxMMz0qUy2-50" source="cCStzNTXAHTxMMz0qUy2-63" target="cCStzNTXAHTxMMz0qUy2-65" edge="1">
          <mxGeometry relative="1" as="geometry" />
        </mxCell>
        <mxCell id="cCStzNTXAHTxMMz0qUy2-63" value="SPRINT CI&lt;div&gt;&lt;span style=&quot;font-size: 10px;&quot;&gt;(Dev)&lt;/span&gt;&lt;/div&gt;" style="rounded=0;whiteSpace=wrap;html=1;" parent="cCStzNTXAHTxMMz0qUy2-50" vertex="1">
          <mxGeometry x="330" y="320" width="120" height="60" as="geometry" />
        </mxCell>
        <mxCell id="cCStzNTXAHTxMMz0qUy2-64" style="edgeStyle=orthogonalEdgeStyle;rounded=0;orthogonalLoop=1;jettySize=auto;html=1;entryX=0;entryY=0.5;entryDx=0;entryDy=0;" parent="cCStzNTXAHTxMMz0qUy2-50" source="cCStzNTXAHTxMMz0qUy2-65" target="cCStzNTXAHTxMMz0qUy2-7" edge="1">
          <mxGeometry relative="1" as="geometry">
            <mxPoint x="690" y="290" as="targetPoint" />
          </mxGeometry>
        </mxCell>
        <mxCell id="cCStzNTXAHTxMMz0qUy2-65" value="SPRINT QA&lt;div&gt;&lt;span style=&quot;font-size: 10px;&quot;&gt;(Dev)&lt;/span&gt;&lt;/div&gt;" style="rounded=0;whiteSpace=wrap;html=1;" parent="cCStzNTXAHTxMMz0qUy2-50" vertex="1">
          <mxGeometry x="510" y="320" width="120" height="60" as="geometry" />
        </mxCell>
        <mxCell id="cCStzNTXAHTxMMz0qUy2-66" value="" style="rounded=0;whiteSpace=wrap;html=1;" parent="cCStzNTXAHTxMMz0qUy2-50" vertex="1">
          <mxGeometry x="140" y="330" width="120" height="60" as="geometry" />
        </mxCell>
        <mxCell id="cCStzNTXAHTxMMz0qUy2-67" value="DEV 3&lt;div&gt;&lt;span style=&quot;font-size: 10px;&quot;&gt;(Dev)&lt;/span&gt;&lt;/div&gt;" style="rounded=0;whiteSpace=wrap;html=1;" parent="cCStzNTXAHTxMMz0qUy2-50" vertex="1">
          <mxGeometry x="150" y="320" width="120" height="60" as="geometry" />
        </mxCell>
        <mxCell id="cCStzNTXAHTxMMz0qUy2-23" value="PEN/LOAD TEST&lt;br&gt;&lt;div&gt;&lt;font style=&quot;font-size: 10px;&quot;&gt;(Full Copy)&lt;/font&gt;&lt;/div&gt;" style="rounded=0;whiteSpace=wrap;html=1;fillColor=#d5e8d4;strokeColor=#82b366;" parent="cCStzNTXAHTxMMz0qUy2-50" vertex="1">
          <mxGeometry x="1150" y="320" width="120" height="60" as="geometry" />
        </mxCell>
        <mxCell id="OafFXzOzD-JtSpszp6co-4" value="PROJECT UAT&lt;div&gt;&lt;font style=&quot;font-size: 10px;&quot;&gt;(Dev Pro)&lt;/font&gt;&lt;/div&gt;" style="rounded=0;whiteSpace=wrap;html=1;" vertex="1" parent="cCStzNTXAHTxMMz0qUy2-50">
          <mxGeometry x="330" y="10" width="120" height="60" as="geometry" />
        </mxCell>
        <mxCell id="cCStzNTXAHTxMMz0qUy2-51" value="Salesforce Commerce Cloud" style="swimlane;horizontal=0;whiteSpace=wrap;html=1;" parent="1" vertex="1">
          <mxGeometry x="-190" y="530" width="1460" height="420" as="geometry" />
        </mxCell>
        <mxCell id="cCStzNTXAHTxMMz0qUy2-56" value="" style="rounded=0;whiteSpace=wrap;html=1;" parent="cCStzNTXAHTxMMz0qUy2-51" vertex="1">
          <mxGeometry x="140" y="60" width="120" height="60" as="geometry" />
        </mxCell>
        <mxCell id="cCStzNTXAHTxMMz0qUy2-69" value="" style="rounded=0;whiteSpace=wrap;html=1;" parent="cCStzNTXAHTxMMz0qUy2-51" vertex="1">
          <mxGeometry x="140" y="300" width="120" height="60" as="geometry" />
        </mxCell>
        <mxCell id="cCStzNTXAHTxMMz0qUy2-70" style="edgeStyle=orthogonalEdgeStyle;rounded=0;orthogonalLoop=1;jettySize=auto;html=1;entryX=0;entryY=0.5;entryDx=0;entryDy=0;" parent="cCStzNTXAHTxMMz0qUy2-51" source="cCStzNTXAHTxMMz0qUy2-71" target="cCStzNTXAHTxMMz0qUy2-73" edge="1">
          <mxGeometry relative="1" as="geometry" />
        </mxCell>
        <mxCell id="cCStzNTXAHTxMMz0qUy2-71" value="DEV 2&lt;div&gt;&lt;span style=&quot;font-size: 10px;&quot;&gt;(M ODS)&lt;/span&gt;&lt;/div&gt;" style="rounded=0;whiteSpace=wrap;html=1;" parent="cCStzNTXAHTxMMz0qUy2-51" vertex="1">
          <mxGeometry x="150" y="290" width="120" height="60" as="geometry" />
        </mxCell>
        <mxCell id="cCStzNTXAHTxMMz0qUy2-72" style="edgeStyle=orthogonalEdgeStyle;rounded=0;orthogonalLoop=1;jettySize=auto;html=1;entryX=0;entryY=0.5;entryDx=0;entryDy=0;" parent="cCStzNTXAHTxMMz0qUy2-51" source="cCStzNTXAHTxMMz0qUy2-73" target="cCStzNTXAHTxMMz0qUy2-75" edge="1">
          <mxGeometry relative="1" as="geometry" />
        </mxCell>
        <mxCell id="cCStzNTXAHTxMMz0qUy2-73" value="SPRINT CI&lt;div&gt;&lt;span style=&quot;font-size: 10px;&quot;&gt;(M ODS)&lt;/span&gt;&lt;/div&gt;" style="rounded=0;whiteSpace=wrap;html=1;" parent="cCStzNTXAHTxMMz0qUy2-51" vertex="1">
          <mxGeometry x="330" y="290" width="120" height="60" as="geometry" />
        </mxCell>
        <mxCell id="cCStzNTXAHTxMMz0qUy2-75" value="SPRINT QA&lt;div&gt;&lt;span style=&quot;font-size: 10px;&quot;&gt;(M ODS)&lt;/span&gt;&lt;/div&gt;" style="rounded=0;whiteSpace=wrap;html=1;" parent="cCStzNTXAHTxMMz0qUy2-51" vertex="1">
          <mxGeometry x="510" y="290" width="120" height="60" as="geometry" />
        </mxCell>
        <mxCell id="cCStzNTXAHTxMMz0qUy2-44" value="SPRINT UAT&lt;div&gt;&lt;span style=&quot;font-size: 10px;&quot;&gt;(L ODS)&lt;/span&gt;&lt;/div&gt;" style="rounded=0;whiteSpace=wrap;html=1;" parent="cCStzNTXAHTxMMz0qUy2-51" vertex="1">
          <mxGeometry x="690" y="230" width="120" height="60" as="geometry" />
        </mxCell>
        <mxCell id="cCStzNTXAHTxMMz0qUy2-74" style="edgeStyle=orthogonalEdgeStyle;rounded=0;orthogonalLoop=1;jettySize=auto;html=1;entryX=0;entryY=0.5;entryDx=0;entryDy=0;" parent="cCStzNTXAHTxMMz0qUy2-51" source="cCStzNTXAHTxMMz0qUy2-75" target="cCStzNTXAHTxMMz0qUy2-44" edge="1">
          <mxGeometry relative="1" as="geometry">
            <mxPoint x="690" y="320" as="targetPoint" />
          </mxGeometry>
        </mxCell>
        <mxCell id="cCStzNTXAHTxMMz0qUy2-2" value="DEV 1&lt;div&gt;&lt;span style=&quot;font-size: 10px;&quot;&gt;(M ODS)&lt;/span&gt;&lt;/div&gt;" style="rounded=0;whiteSpace=wrap;html=1;" parent="1" vertex="1">
          <mxGeometry x="-40" y="580" width="120" height="60" as="geometry" />
        </mxCell>
        <mxCell id="cCStzNTXAHTxMMz0qUy2-27" style="edgeStyle=orthogonalEdgeStyle;rounded=0;orthogonalLoop=1;jettySize=auto;html=1;entryX=0;entryY=0.5;entryDx=0;entryDy=0;" parent="1" source="OafFXzOzD-JtSpszp6co-2" target="cCStzNTXAHTxMMz0qUy2-9" edge="1">
          <mxGeometry relative="1" as="geometry" />
        </mxCell>
        <mxCell id="OafFXzOzD-JtSpszp6co-2" value="GLOBAL CI&lt;div&gt;&lt;span style=&quot;font-size: 10px;&quot;&gt;(Dev)&lt;/span&gt;&lt;/div&gt;" style="rounded=0;whiteSpace=wrap;html=1;" vertex="1" parent="1">
          <mxGeometry x="690" y="290" width="120" height="60" as="geometry" />
        </mxCell>
        <mxCell id="OafFXzOzD-JtSpszp6co-3" value="" style="edgeStyle=orthogonalEdgeStyle;rounded=0;orthogonalLoop=1;jettySize=auto;html=1;entryX=0;entryY=0.5;entryDx=0;entryDy=0;" edge="1" parent="1" source="cCStzNTXAHTxMMz0qUy2-7" target="OafFXzOzD-JtSpszp6co-2">
          <mxGeometry relative="1" as="geometry">
            <mxPoint x="620" y="380" as="sourcePoint" />
            <mxPoint x="860" y="320" as="targetPoint" />
            <Array as="points">
              <mxPoint x="650" y="360" />
              <mxPoint x="650" y="320" />
            </Array>
          </mxGeometry>
        </mxCell>
      </root>
    </mxGraphModel>
  </diagram>
</mxfile>
